<svg width="144" height="144" viewBox="0 0 144 144" version="1.1" xmlns="http://www.w3.org/2000/svg" xmlns:xlink="http://www.w3.org/1999/xlink">
<title>In-Develop Icon</title>
<desc>Created using Figma</desc>
<g id="Canvas" transform="translate(283 219)">
<clipPath id="clip-0" clip-rule="evenodd">
<path d="M -283 -219L -139 -219L -139 -75L -283 -75L -283 -219Z" fill="#FFFFFF"/>
</clipPath>
<g id="In-Develop Icon" clip-path="url(#clip-0)">
<g id="{ }">
<use xlink:href="#path0_fill" transform="translate(-283 -219)"/>
</g>
</g>
</g>
<defs>
<path id="path0_fill" d="M 54.1706 41.8C 51.8026 41.8 49.9786 42.552 48.6986 44.056C 47.4186 45.56 46.7786 47.608 46.7786 50.2C 46.7786 51.992 46.8746 53.704 47.0666 55.336C 47.2906 56.936 47.5146 58.52 47.7386 60.088C 47.9946 61.656 48.2186 63.208 48.4106 64.744C 48.6346 66.248 48.7466 67.768 48.7466 69.304C 48.7466 70.488 48.5706 71.624 48.2186 72.712C 47.8666 73.768 47.3706 74.728 46.7306 75.592C 46.0906 76.456 45.3066 77.208 44.3786 77.848C 43.4826 78.456 42.4746 78.904 41.3546 79.192C 43.5946 79.832 45.3866 81.048 46.7306 82.84C 48.0746 84.632 48.7466 86.728 48.7466 89.128C 48.7466 90.664 48.6346 92.2 48.4106 93.736C 48.2186 95.24 47.9946 96.776 47.7386 98.344C 47.5146 99.912 47.2906 101.512 47.0666 103.144C 46.8746 104.776 46.7786 106.472 46.7786 108.232C 46.7786 110.824 47.4186 112.856 48.6986 114.328C 49.9786 115.832 51.8026 116.584 54.1706 116.584L 54.8426 116.584C 55.2906 116.584 55.7706 116.76 56.2826 117.112C 56.8266 117.464 57.0986 118.008 57.0986 118.744L 57.0986 123.4L 54.5546 123.4C 51.7066 123.4 49.2266 123.016 47.1146 122.248C 45.0346 121.48 43.2906 120.392 41.8826 118.984C 40.5066 117.608 39.4666 115.944 38.7626 113.992C 38.0906 112.072 37.7546 109.944 37.7546 107.608C 37.7546 106.008 37.8666 104.44 38.0906 102.904C 38.3466 101.336 38.6026 99.784 38.8586 98.248C 39.1466 96.712 39.4026 95.176 39.6266 93.64C 39.8826 92.104 40.0106 90.568 40.0106 89.032C 40.0106 87.016 39.4986 85.384 38.4746 84.136C 37.4826 82.888 35.9466 82.264 33.8666 82.264L 33.8666 76.168C 35.9466 76.168 37.4826 75.544 38.4746 74.296C 39.4986 73.048 40.0106 71.416 40.0106 69.4C 40.0106 67.864 39.8826 66.328 39.6266 64.792C 39.4026 63.256 39.1466 61.72 38.8586 60.184C 38.6026 58.648 38.3466 57.112 38.0906 55.576C 37.8666 54.008 37.7546 52.424 37.7546 50.824C 37.7546 48.488 38.0906 46.36 38.7626 44.44C 39.4666 42.488 40.5066 40.824 41.8826 39.448C 43.2906 38.04 45.0346 36.952 47.1146 36.184C 49.2266 35.416 51.7066 35.032 54.5546 35.032L 57.0986 35.032L 57.0986 39.688C 57.0986 40.424 56.8266 40.968 56.2826 41.32C 55.7706 41.64 55.2906 41.8 54.8426 41.8L 54.1706 41.8ZM 110.113 82.264C 108.033 82.264 106.481 82.888 105.457 84.136C 104.465 85.384 103.969 87.016 103.969 89.032C 103.969 90.568 104.081 92.104 104.305 93.64C 104.561 95.176 104.817 96.712 105.073 98.248C 105.361 99.784 105.617 101.336 105.841 102.904C 106.097 104.44 106.225 106.008 106.225 107.608C 106.225 109.944 105.873 112.072 105.169 113.992C 104.497 115.944 103.457 117.608 102.049 118.984C 100.673 120.392 98.9291 121.48 96.8171 122.248C 94.7371 123.016 92.2891 123.4 89.4731 123.4L 86.8811 123.4L 86.8811 118.744C 86.8811 118.008 87.1531 117.464 87.6971 117.112C 88.2411 116.76 88.7211 116.584 89.1371 116.584L 89.8571 116.584C 92.1931 116.584 94.0011 115.832 95.2811 114.328C 96.5931 112.856 97.2491 110.824 97.2491 108.232C 97.2491 106.472 97.1371 104.776 96.9131 103.144C 96.7211 101.512 96.4971 99.912 96.2411 98.344C 95.9851 96.776 95.7451 95.24 95.5211 93.736C 95.3291 92.2 95.2331 90.664 95.2331 89.128C 95.2331 86.728 95.9051 84.632 97.2491 82.84C 98.5931 81.048 100.385 79.832 102.625 79.192C 101.505 78.904 100.481 78.456 99.5531 77.848C 98.6571 77.208 97.8891 76.456 97.2491 75.592C 96.6091 74.728 96.1131 73.768 95.7611 72.712C 95.4091 71.624 95.2331 70.488 95.2331 69.304C 95.2331 67.768 95.3291 66.248 95.5211 64.744C 95.7451 63.208 95.9851 61.656 96.2411 60.088C 96.4971 58.52 96.7211 56.936 96.9131 55.336C 97.1371 53.704 97.2491 51.992 97.2491 50.2C 97.2491 47.608 96.5931 45.56 95.2811 44.056C 94.0011 42.552 92.1931 41.8 89.8571 41.8L 89.1371 41.8C 88.7211 41.8 88.2411 41.64 87.6971 41.32C 87.1531 40.968 86.8811 40.424 86.8811 39.688L 86.8811 35.032L 89.4731 35.032C 92.2891 35.032 94.7371 35.416 96.8171 36.184C 98.9291 36.952 100.673 38.04 102.049 39.448C 103.457 40.824 104.497 42.488 105.169 44.44C 105.873 46.36 106.225 48.488 106.225 50.824C 106.225 52.424 106.097 54.008 105.841 55.576C 105.617 57.112 105.361 58.648 105.073 60.184C 104.817 61.72 104.561 63.256 104.305 64.792C 104.081 66.328 103.969 67.864 103.969 69.4C 103.969 71.416 104.465 73.048 105.457 74.296C 106.481 75.544 108.033 76.168 110.113 76.168L 110.113 82.264Z"/>
</defs>
</svg>
